<svg width="14" height="21" viewBox="0 0 14 21" fill="none" xmlns="http://www.w3.org/2000/svg">
<path fill-rule="evenodd" clip-rule="evenodd" d="M5.91459 0.454184C6.16868 0.32714 6.47274 0.354557 6.7 0.525004L13.1583 5.2125C13.3399 5.3487 13.4501 5.55982 13.4579 5.78669C13.4657 6.01355 13.3704 6.23175 13.1986 6.38012L8.42817 10.5L13.1986 14.6199C13.3704 14.7683 13.4657 14.9865 13.4579 15.2133C13.4501 15.4402 13.3399 15.6513 13.1583 15.7875L6.7 20.475C6.47274 20.6455 6.16868 20.6729 5.91459 20.5458C5.6605 20.4188 5.5 20.1591 5.5 19.875V12.8489L1.74023 16.276C1.42674 16.5467 0.953133 16.512 0.682395 16.1986C0.411657 15.8851 0.446311 15.4115 0.759797 15.1407L5.5 10.867V10.133L0.759797 5.85929C0.446311 5.58855 0.411657 5.11494 0.682395 4.80146C0.953133 4.48797 1.42674 4.45332 1.74023 4.72405L5.5 8.15106V1.125C5.5 0.840925 5.6605 0.581228 5.91459 0.454184ZM7.07237 9.50902L7 9.44652V2.625L11.5132 5.85367L7.07237 9.50902ZM7.07237 11.491L7 11.5535V18.375L11.5132 15.1463L7.07237 11.491Z" fill="#555770"/>
</svg>
