<svg width="20" height="20" viewBox="0 0 20 20" fill="none" xmlns="http://www.w3.org/2000/svg">
<rect width="20" height="20" rx="4" fill="#FF4D4F"/>
<path fill-rule="evenodd" clip-rule="evenodd" d="M4.6875 9.24609C5.10171 9.24609 5.4375 9.58188 5.4375 9.99609C5.4375 12.5156 7.48046 14.5586 10 14.5586C12.5195 14.5586 14.5625 12.5156 14.5625 9.99609C14.5625 9.58188 14.8983 9.24609 15.3125 9.24609C15.7267 9.24609 16.0625 9.58188 16.0625 9.99609C16.0625 13.3441 13.348 16.0586 10 16.0586C6.65204 16.0586 3.9375 13.3441 3.9375 9.99609C3.9375 9.58188 4.27329 9.24609 4.6875 9.24609Z" fill="white"/>
<path fill-rule="evenodd" clip-rule="evenodd" d="M8.1084 3.18111C8.62716 2.58447 9.32889 2.37695 10 2.37695C11.4492 2.37695 12.625 3.55274 12.625 5.00195V9.2932C12.625 9.70742 12.2892 10.0432 11.875 10.0432C11.4608 10.0432 11.125 9.70742 11.125 9.2932V5.00195C11.125 4.38117 10.6208 3.87695 10 3.87695C9.63611 3.87695 9.40034 3.98133 9.24035 4.16532C9.06479 4.36724 8.875 4.78577 8.875 5.62573C8.875 6.03995 8.53921 6.37573 8.125 6.37573C7.71079 6.37573 7.375 6.03995 7.375 5.62573C7.375 4.59069 7.60521 3.75984 8.1084 3.18111ZM8.125 8.62573C8.53921 8.62573 8.875 8.96152 8.875 9.37573V10.0432C8.875 10.664 9.37921 11.1682 10 11.1682C10.4142 11.1682 10.75 11.504 10.75 11.9182C10.75 12.3324 10.4142 12.6682 10 12.6682C8.55079 12.6682 7.375 11.4924 7.375 10.0432V9.37573C7.375 8.96152 7.71079 8.62573 8.125 8.62573Z" fill="white"/>
<path fill-rule="evenodd" clip-rule="evenodd" d="M9.75 14.75C10.1642 14.75 10.5 15.0858 10.5 15.5V17.4375C10.5 17.8517 10.1642 18.1875 9.75 18.1875C9.33579 18.1875 9 17.8517 9 17.4375L9 15.5C9 15.0858 9.33579 14.75 9.75 14.75Z" fill="white"/>
<path fill-rule="evenodd" clip-rule="evenodd" d="M3.84467 5.09467C4.13756 4.80178 4.61244 4.80178 4.90533 5.09467L15.5303 15.7197C15.8232 16.0126 15.8232 16.4874 15.5303 16.7803C15.2374 17.0732 14.7626 17.0732 14.4697 16.7803L3.84467 6.15533C3.55178 5.86244 3.55178 5.38756 3.84467 5.09467Z" fill="white"/>
</svg>
