<svg width="25" height="25" viewBox="0 0 25 25" fill="none" xmlns="http://www.w3.org/2000/svg">
<path fill-rule="evenodd" clip-rule="evenodd" d="M2.50024 12.5C2.50024 6.92745 6.92747 2.375 12.5 2.375V3.875C7.7559 3.875 4.00024 7.75588 4.00024 12.5V14.9073C4.00024 15.3215 3.66446 15.6573 3.25024 15.6573C2.83603 15.6573 2.50024 15.3215 2.50024 14.9073V12.5Z" fill="#555770"/>
<path fill-rule="evenodd" clip-rule="evenodd" d="M21 12.5042C21 7.76005 17.2441 3.875 12.5 3.875V2.375C18.0725 2.375 22.5 6.93162 22.5 12.5042V14.9115C22.5 15.3257 22.1642 15.6615 21.75 15.6615C21.3358 15.6615 21 15.3257 21 14.9115V12.5042Z" fill="#555770"/>
<path fill-rule="evenodd" clip-rule="evenodd" d="M16.4866 15.7917C16.4866 14.8025 17.289 14 18.2782 14L21.7502 14C22.1645 14 22.5002 14.3358 22.5002 14.75V18.6667C22.5002 20.2319 21.3612 21.5 19.7959 21.5H18.2782C17.2875 21.5 16.4866 20.6971 16.4866 19.7083V15.7917ZM18.2782 15.5C18.1175 15.5 17.9866 15.6309 17.9866 15.7917V19.7083C17.9866 19.8696 18.1169 20 18.2782 20H19.7959C20.5328 20 21.0002 19.4035 21.0002 18.6667V15.5H18.2782Z" fill="#555770"/>
<path fill-rule="evenodd" clip-rule="evenodd" d="M2.50024 14.75C2.50024 14.3358 2.83603 14 3.25024 14H6.72189C7.7111 14 8.51356 14.8025 8.51356 15.7917V19.7083C8.51356 20.6971 7.71263 21.5 6.72189 21.5H5.20418C3.63893 21.5 2.50024 20.2319 2.50024 18.6667V14.75ZM4.00024 15.5V18.6667C4.00024 19.4035 4.46735 20 5.20418 20H6.72189C6.88323 20 7.01356 19.8696 7.01356 19.7083V15.7917C7.01356 15.6309 6.88268 15.5 6.72189 15.5H4.00024Z" fill="#555770"/>
</svg>
