<svg width="18" height="18" viewBox="0 0 18 18" fill="none" xmlns="http://www.w3.org/2000/svg">
<path d="M2.75 0C1.2309 0 0 1.2309 0 2.75V4.75C0 5.16421 0.335786 5.5 0.75 5.5C1.16421 5.5 1.5 5.16421 1.5 4.75V2.75C1.5 2.05932 2.05932 1.5 2.75 1.5H14.75C15.4407 1.5 16 2.05932 16 2.75V14.75C16 15.4407 15.4407 16 14.75 16H2.75C2.05932 16 1.5 15.4407 1.5 14.75V12.75C1.5 12.3358 1.16421 12 0.75 12C0.335786 12 0 12.3358 0 12.75V14.75C0 16.2691 1.2309 17.5 2.75 17.5H14.75C16.2691 17.5 17.5 16.2691 17.5 14.75V2.75C17.5 1.2309 16.2691 0 14.75 0H2.75Z" fill="#FF4D4F"/>
<path d="M8.21967 4.84467C8.51256 4.55178 8.98744 4.55178 9.28033 4.84467L12.6062 8.17059C12.7734 8.30814 12.88 8.51662 12.88 8.75C12.88 8.98342 12.7734 9.19193 12.6062 9.32949L9.28025 12.6544C8.98732 12.9473 8.51244 12.9472 8.21959 12.6543C7.92674 12.3613 7.92681 11.8864 8.21975 11.5936L10.314 9.5H0.75C0.335786 9.5 0 9.16421 0 8.75C0 8.33579 0.335786 8 0.75 8H10.3143L8.21967 5.90533C7.92678 5.61244 7.92678 5.13756 8.21967 4.84467Z" fill="#FF4D4F"/>
</svg>
