<svg width="14" height="20" viewBox="0 0 14 20" fill="none" xmlns="http://www.w3.org/2000/svg">
<path fill-rule="evenodd" clip-rule="evenodd" d="M6.75 0C4.67879 0 3 1.67879 3 3.75V9.75C3 11.8212 4.67879 13.5 6.75 13.5C8.82121 13.5 10.5 11.8212 10.5 9.75V3.75C10.5 1.67879 8.82121 0 6.75 0ZM4.5 3.75C4.5 2.50721 5.50721 1.5 6.75 1.5C7.99279 1.5 9 2.50721 9 3.75V9.75C9 10.9928 7.99279 12 6.75 12C5.50721 12 4.5 10.9928 4.5 9.75V3.75Z" fill="#555770"/>
<path d="M1.5 7.75C1.5 7.33579 1.16421 7 0.75 7C0.335786 7 0 7.33579 0 7.75V9.75C0 13.2247 2.62481 16.0858 6 16.4588V18H3.75C3.33579 18 3 18.3358 3 18.75C3 19.1642 3.33579 19.5 3.75 19.5H9.75C10.1642 19.5 10.5 19.1642 10.5 18.75C10.5 18.3358 10.1642 18 9.75 18H7.5V16.4588C10.8752 16.0858 13.5 13.2247 13.5 9.75V7.75C13.5 7.33579 13.1642 7 12.75 7C12.3358 7 12 7.33579 12 7.75V9.75C12 12.6498 9.64979 15 6.75 15C3.85021 15 1.5 12.6498 1.5 9.75V7.75Z" fill="#555770"/>
</svg>
