<svg width="25" height="25" viewBox="0 0 25 25" fill="none" xmlns="http://www.w3.org/2000/svg">
<path d="M10.5 6.75C10.5 5.50721 11.5072 4.5 12.75 4.5C13.9928 4.5 15 5.50721 15 6.75V12.25C15 12.6642 15.3358 13 15.75 13C16.1642 13 16.5 12.6642 16.5 12.25V6.75C16.5 4.67879 14.8212 3 12.75 3C10.6788 3 9 4.67879 9 6.75V8.25C9 8.66421 9.33579 9 9.75 9C10.1642 9 10.5 8.66421 10.5 8.25V6.75Z" fill="#C7C8D9"/>
<path d="M10.5 13C10.5 12.5858 10.1642 12.25 9.75 12.25C9.33579 12.25 9 12.5858 9 13C9 15.0712 10.928 16.5 12.9992 16.5C13.8655 16.5 14.4475 16.3765 14.8233 16.1177C15.0303 15.9752 15.1779 15.7887 15.2524 15.5744C15.2879 15.4725 15.3021 15.3773 15.3047 15.2955C15.306 15.255 15.3044 15.218 15.3014 15.1853C15.2998 15.1689 15.2979 15.1536 15.2957 15.1393L15.2923 15.1187L15.2905 15.109L15.2896 15.1043L15.2892 15.1019C15.2892 15.1019 15.2887 15.0996 14.5539 15.25L15.2887 15.0996C15.2057 14.6938 14.8094 14.4322 14.4036 14.5152C14.3738 14.5213 14.305 14.5563 14.2094 14.6048C13.9324 14.7455 13.4305 15.0006 12.9992 15C11.8238 14.9985 10.5 14 10.5 13Z" fill="#C7C8D9"/>
<path d="M12.0021 18.951C10.0562 18.7539 8.53687 17.9655 7.47957 16.6594C6.26941 15.1645 6 13.0961 6 10.75C6 10.3358 6.33579 10 6.75 10C7.16421 10 7.5 10.3358 7.5 10.75C7.5 12.9039 7.73059 14.5855 8.64543 15.7156C9.53867 16.819 10.9299 17.5 13 17.5H13.0083C13.0551 17.5 13.1086 17.5016 13.169 17.5033C13.691 17.5184 14.7261 17.5484 16.377 16.723C16.7475 16.5377 17.198 16.6879 17.3833 17.0584C17.5685 17.4289 17.4183 17.8794 17.0479 18.0646C15.3606 18.9082 14.1991 19.0069 13.5005 19.0079V21H16.0005C16.4147 21 16.7505 21.3358 16.7505 21.75C16.7505 22.1642 16.4147 22.5 16.0005 22.5H9.76221C9.34799 22.5 9.01221 22.1642 9.01221 21.75C9.01221 21.3358 9.34799 21 9.76221 21H12.0005V19C12.0005 18.9836 12.001 18.9672 12.0021 18.951Z" fill="#C7C8D9"/>
<path d="M19.4999 10.7513C19.4999 10.3371 19.1642 10.0013 18.7499 10.0013C18.3357 10.0013 17.9999 10.3371 17.9999 10.7513C17.9999 12.8082 17.9835 13.7032 17.5792 14.5119C17.3939 14.8824 17.5441 15.3329 17.9146 15.5181C18.2851 15.7034 18.7356 15.5532 18.9208 15.1827C19.5007 14.023 19.5004 12.758 19.5 10.9041L19.4999 10.7513Z" fill="#C7C8D9"/>
<path d="M5 2L21 23" stroke="#FF7875" stroke-width="1.5" stroke-linecap="round" stroke-linejoin="round"/>
</svg>
