<svg width="25" height="25" viewBox="0 0 25 25" fill="none" xmlns="http://www.w3.org/2000/svg">
<path fill-rule="evenodd" clip-rule="evenodd" d="M9.75 2.5C10.1642 2.5 10.5 2.83579 10.5 3.25V5.00104H14.5001V3.25C14.5001 2.83579 14.8359 2.5 15.2501 2.5C15.6643 2.5 16.0001 2.83579 16.0001 3.25V5.10108C16.039 5.80931 15.5134 6.42674 14.8032 6.49736C14.7786 6.49981 14.7538 6.50104 14.729 6.50104L10.2711 6.50104C10.2463 6.50104 10.2215 6.49981 10.1968 6.49736C9.48668 6.42674 8.96107 5.80931 9 5.10108V3.25C9 2.83579 9.33579 2.5 9.75 2.5Z" fill="#ffffff"/>
<path fill-rule="evenodd" clip-rule="evenodd" d="M9.99976 18.7529C9.99976 18.3387 10.3355 18.0029 10.7498 18.0029H14.2498C14.664 18.0029 14.9998 18.3387 14.9998 18.7529C14.9998 19.1671 14.664 19.5029 14.2498 19.5029H10.7498C10.3355 19.5029 9.99976 19.1671 9.99976 18.7529Z" fill="#ffffff"/>
<path fill-rule="evenodd" clip-rule="evenodd" d="M8.33152 4C7.59466 4 6.99731 4.59734 6.99731 5.3342V19.6658C6.99731 20.4027 7.59466 21 8.33152 21H16.6683C17.4052 21 18.0025 20.4027 18.0025 19.6658V5.3342C18.0025 4.59734 17.4052 4 16.6683 4H8.33152ZM5.49731 5.3342C5.49731 3.76892 6.76623 2.5 8.33152 2.5H16.6683C18.2336 2.5 19.5025 3.76891 19.5025 5.3342V19.6658C19.5025 21.2311 18.2336 22.5 16.6683 22.5H8.33152C6.76623 22.5 5.49731 21.2311 5.49731 19.6658L5.49731 5.3342Z" fill="#ffffff"/>
</svg>
