<svg width="24" height="11" viewBox="0 0 24 11" fill="none" xmlns="http://www.w3.org/2000/svg">
<path fill-rule="evenodd" clip-rule="evenodd" d="M11.8898 2.49956C7.60104 2.43859 4.07743 4.23112 2.09097 5.53864C1.57038 5.88131 1.49418 6.64714 2.07252 7.15296L3.91356 8.76314C3.98684 8.82723 4.09065 8.84295 4.17961 8.80344L7.13934 7.48905C7.26963 7.43119 7.32524 7.27627 7.26148 7.14877L6.95323 6.53226C6.64827 5.92235 6.88572 5.13118 7.5798 4.8538C8.35572 4.54371 9.98464 3.99963 11.9004 3.99963C13.8163 3.99963 15.4452 4.54371 16.2211 4.8538C16.9152 5.13118 17.1526 5.92235 16.8477 6.53226L16.5394 7.14877C16.4757 7.27627 16.5313 7.43119 16.6615 7.48905L19.5775 8.78401C19.672 8.82597 19.7826 8.80543 19.8557 8.73234L21.4395 7.14931C21.9472 6.64177 21.8646 5.93986 21.3913 5.61232C19.5706 4.35246 16.2272 2.56123 11.8898 2.49956ZM1.26626 4.2857C3.38026 2.89423 7.20215 0.932763 11.9111 0.999716C16.6507 1.0671 20.2823 3.02084 22.2448 4.37884C23.6028 5.3185 23.5672 7.14339 22.4999 8.21021L20.9161 9.79324C20.4042 10.3049 19.6302 10.4487 18.9687 10.1549L16.0527 8.85995C15.1407 8.45494 14.7515 7.37049 15.1978 6.47795L15.3695 6.13446C14.6146 5.86085 13.3422 5.49964 11.9004 5.49964C10.4587 5.49964 9.18632 5.86085 8.43138 6.13446L8.60313 6.47795C9.0494 7.37049 8.66015 8.45494 7.74815 8.85995L4.78842 10.1743C4.16565 10.4509 3.43898 10.3408 2.92606 9.89223L1.08501 8.28205C-0.128566 7.22065 -0.201627 5.25189 1.26626 4.2857Z" fill="white"/>
</svg>
