<svg width="25" height="25" viewBox="0 0 25 25" fill="none" xmlns="http://www.w3.org/2000/svg">
<path fill-rule="evenodd" clip-rule="evenodd" d="M9.61882 4.68259C10.7561 3.71729 12.5001 4.52779 12.5001 6.01746V17.9835C12.5001 19.4735 10.757 20.2832 9.61909 19.3186L5.85007 16.1255H3.75006C2.78385 16.1255 2.00006 15.3417 2.00006 14.3755V9.62546C2.00006 8.65925 2.78385 7.87546 3.75006 7.87546H5.85007L9.61882 4.68259ZM11.0001 6.01746C11.0001 5.8032 10.7502 5.68971 10.5895 5.8262L6.60987 9.1977C6.4744 9.31247 6.30261 9.37546 6.12506 9.37546H3.75006C3.61227 9.37546 3.50006 9.48767 3.50006 9.62546V14.3755C3.50006 14.5132 3.61227 14.6255 3.75006 14.6255H6.12506C6.30261 14.6255 6.4744 14.6884 6.60987 14.8032L10.5889 18.1742C10.7509 18.3116 11.0001 18.1974 11.0001 17.9835V6.01746Z" fill="white"/>
<path fill-rule="evenodd" clip-rule="evenodd" d="M16.9023 7.62222C17.1229 7.27161 17.5859 7.16619 17.9365 7.38675C19.3521 8.27731 20.2501 10.0426 20.2501 12.0046C20.2501 13.9656 19.3526 15.7326 17.9329 16.6146C17.5811 16.8332 17.1187 16.7252 16.9001 16.3734C16.6815 16.0216 16.7895 15.5591 17.1413 15.3405C18.0457 14.7786 18.7501 13.5416 18.7501 12.0046C18.7501 10.4686 18.0461 9.22786 17.1378 8.65641C16.7871 8.43585 16.6817 7.97283 16.9023 7.62222Z" fill="white"/>
<path fill-rule="evenodd" clip-rule="evenodd" d="M18.9308 4.44716C19.2006 4.13281 19.6741 4.09665 19.9884 4.36638C21.9828 6.07773 23.25 8.87666 23.25 12.0026C23.25 15.1244 21.9848 17.921 19.994 19.6332C19.68 19.9033 19.2065 19.8677 18.9364 19.5536C18.6663 19.2396 18.7019 18.766 19.0159 18.4959C20.6412 17.0981 21.75 14.7347 21.75 12.0026C21.75 9.26646 20.6392 6.90139 19.0116 5.50474C18.6972 5.235 18.6611 4.7615 18.9308 4.44716Z" fill="white"/>
<path fill-rule="evenodd" clip-rule="evenodd" d="M14.3292 9.66475C14.5144 9.29427 14.9649 9.1441 15.3354 9.32934L15 10.0002C15.3354 9.32934 15.3358 9.32954 15.3362 9.32974L15.337 9.33016L15.3387 9.33102L15.3425 9.33292L15.3511 9.33738L15.3727 9.34898C15.3889 9.35794 15.409 9.36939 15.4322 9.38349C15.4786 9.41164 15.5381 9.45063 15.6062 9.50173C15.7422 9.60368 15.9151 9.75595 16.0856 9.96914C16.4344 10.405 16.75 11.068 16.75 12.0002C16.75 12.9324 16.4344 13.5953 16.0856 14.0312C15.9151 14.2444 15.7422 14.3967 15.6062 14.4986C15.5381 14.5497 15.4786 14.5887 15.4322 14.6168C15.409 14.6309 15.3889 14.6424 15.3727 14.6513L15.3511 14.663L15.3425 14.6674L15.3387 14.6693L15.337 14.6702L15.3362 14.6706C15.3358 14.6708 15.3354 14.671 15.0063 14.0127L15.3354 14.671C14.9649 14.8562 14.5144 14.7061 14.3292 14.3356C14.1462 13.9697 14.2904 13.5258 14.6508 13.3364C14.6516 13.336 14.6525 13.3354 14.6537 13.3347C14.662 13.3296 14.6806 13.3178 14.7062 13.2986C14.7578 13.2599 14.8349 13.1935 14.9143 13.0941C15.0656 12.905 15.25 12.568 15.25 12.0002C15.25 11.4324 15.0656 11.0953 14.9143 10.9062C14.8349 10.8069 14.7578 10.7404 14.7062 10.7017C14.6806 10.6825 14.662 10.6707 14.6537 10.6657C14.6525 10.665 14.6516 10.6644 14.6509 10.6639C14.2904 10.4745 14.1462 10.0306 14.3292 9.66475Z" fill="white"/>
</svg>
