<svg width="24" height="24" viewBox="0 0 24 24" fill="none" xmlns="http://www.w3.org/2000/svg">
<path fill-rule="evenodd" clip-rule="evenodd" d="M14.6662 9.55531L13.9613 8.52937C13.735 8.20125 13.3287 8 12.89 8H11.0887C10.645 8 10.2337 8.20672 10.01 8.5425L9.33375 9.55531H8.25C7.56 9.55531 7 10.0453 7 10.6491V13.9063C7 14.51 7.56 15 8.25 15H15.75C16.44 15 17 14.51 17 13.9063V10.6491C17 10.0453 16.44 9.55531 15.75 9.55531H14.6662Z" stroke="white" stroke-width="1.5" stroke-linecap="round" stroke-linejoin="round"/>
<path d="M12.53 11.4704C12.822 11.7624 12.822 12.2384 12.53 12.5304C12.238 12.8224 11.762 12.8224 11.47 12.5304C11.178 12.2384 11.178 11.7624 11.47 11.4704C11.762 11.1784 12.238 11.1764 12.53 11.4704" stroke="white" stroke-width="1.5" stroke-linecap="round" stroke-linejoin="round"/>
<path d="M14 2.25367C10.8201 1.50857 7.35215 2.40337 4.87584 4.95834C1.04139 8.91459 1.04139 15.3279 4.87584 19.2842C5.12457 19.5397 5.38311 19.7771 5.64928 20" stroke="white" stroke-width="1.5" stroke-linecap="round" stroke-linejoin="round"/>
<path d="M3 20H6V17" stroke="white" stroke-width="1.5" stroke-linecap="round" stroke-linejoin="round"/>
<path d="M10 21.7463C13.1799 22.4914 16.6478 21.5966 19.1242 19.0417C22.9586 15.0854 22.9586 8.6721 19.1242 4.71584C18.8754 4.46034 18.6169 4.22286 18.3507 4" stroke="white" stroke-width="1.5" stroke-linecap="round" stroke-linejoin="round"/>
<path d="M21 4H18V7" stroke="white" stroke-width="1.5" stroke-linecap="round" stroke-linejoin="round"/>
</svg>
