<svg width="25" height="25" viewBox="0 0 25 25" fill="none" xmlns="http://www.w3.org/2000/svg">
<path fill-rule="evenodd" clip-rule="evenodd" d="M5.74976 6.5C4.50712 6.5 3.49976 7.50736 3.49976 8.75V15.75C3.49976 16.9926 4.50712 18 5.74976 18H12.7498C13.164 18 13.4998 18.3358 13.4998 18.75C13.4998 19.1642 13.164 19.5 12.7498 19.5H5.74976C3.67869 19.5 1.99976 17.8211 1.99976 15.75V8.75C1.99976 6.67893 3.67869 5 5.74976 5V6.5ZM8.24999 5.75C8.24999 5.33579 8.58578 5 8.99999 5H13.7506C15.822 5 17.4998 6.67921 17.4998 8.75V15.8191C17.4998 17.1316 16.7592 18.3317 15.5861 18.9203L14.9134 17.5797C15.5793 17.2455 15.9998 16.5642 15.9998 15.8191V8.75C15.9998 7.50708 14.993 6.5 13.7506 6.5H8.99999C8.58578 6.5 8.24999 6.16421 8.24999 5.75Z" fill="#C7C8D9"/>
<path d="M3 2L19 23" stroke="#FF7875" stroke-width="1.5" stroke-linecap="round" stroke-linejoin="round"/>
<path fill-rule="evenodd" clip-rule="evenodd" d="M20.0002 7.40653C21.2273 6.41828 23.0504 7.29246 23.0504 8.86682V15.0397C23.0504 16.6143 21.2564 17.5725 20.0293 16.5838L16.5591 13.7648C16.2364 13.5051 16.1853 13.033 16.445 12.7103C16.7047 12.3876 17.1768 12.3365 17.4995 12.5962L20.9701 15.4155C21.215 15.6128 21.5504 15.3552 21.5504 15.0397V8.86682C21.5504 8.55134 21.1859 8.37753 20.941 8.57485L17.0543 11.6138C16.7316 11.8735 15.9998 11.4998 15.9998 11.4998C15.9998 11.4998 16.1772 10.2594 16.4999 9.99976L20.0002 7.40653Z" fill="#C7C8D9"/>
</svg>
