<svg width="21" height="15" viewBox="0 0 21 15" fill="none" xmlns="http://www.w3.org/2000/svg">
<path fill-rule="evenodd" clip-rule="evenodd" d="M3.75 0C1.67893 0 0 1.67893 0 3.75V10.75C0 12.8211 1.67893 14.5 3.75 14.5H11.75C13.8211 14.5 15.5 12.8211 15.5 10.75V9.6048L18.003 11.5939C19.2085 12.5532 21 11.705 21 10.1774V3.82257C21 2.29511 19.2089 1.44699 18.0033 2.40579L15.5 4.3952V3.75C15.5 1.67893 13.8211 0 11.75 0H3.75ZM15.5 6.26322L18.9276 3.5393C19.1682 3.34786 19.5263 3.51649 19.5263 3.82257V10.1774C19.5263 10.4835 19.1678 10.6519 18.9272 10.4604L15.5 7.73678V6.26322ZM14 3.75C14 2.50736 12.9926 1.5 11.75 1.5H3.75C2.50736 1.5 1.5 2.50736 1.5 3.75V10.75C1.5 11.9926 2.50736 13 3.75 13H11.75C12.9926 13 14 11.9926 14 10.75V3.75Z" fill="#555770"/>
</svg>
